<svg width="637" height="559" viewBox="0 0 637 559" fill="none" xmlns="http://www.w3.org/2000/svg">
<g opacity="0.05">
<g clip-path="url(#clip0)">
<path d="M525.907 355.647H566.923V551.67H525.907V355.647Z" fill="#333333"/>
<path d="M537.217 345.709H555.861V356.765H537.217V345.709Z" fill="#333333"/>
<path d="M541.07 339.25H551.884V345.585H541.07V339.25Z" fill="#333333"/>
<path d="M547.161 355.274L546.415 248.443L545.793 355.274H547.161Z" fill="#333333"/>
<path opacity="0.09" d="M544.302 370.43H548.652V374.777H544.302V370.43Z" fill="white"/>
<path opacity="0.33" d="M544.302 384.218H548.652V388.566H544.302V384.218Z" fill="white"/>
<path opacity="0.37" d="M544.302 398.131H548.652V402.479H544.302V398.131Z" fill="white"/>
<path opacity="0.14" d="M544.302 411.92H548.652V416.268H544.302V411.92Z" fill="white"/>
<path opacity="0.3" d="M544.302 425.833H548.652V430.181H544.302V425.833Z" fill="white"/>
<path opacity="0.16" d="M544.302 439.621H548.652V443.969H544.302V439.621Z" fill="white"/>
<path opacity="0.34" d="M544.302 453.534H548.652V457.882H544.302V453.534Z" fill="white"/>
<path opacity="0.29" d="M544.302 467.323H548.652V471.671H544.302V467.323Z" fill="white"/>
<path opacity="0.12" d="M544.302 481.236H548.652V485.584H544.302V481.236Z" fill="white"/>
<path d="M600.854 399.995H729.371V571.049H600.854V399.995Z" fill="#4D4D4D"/>
<path d="M634.537 407.075H641.373V413.907H634.537V407.075Z" fill="white"/>
<path d="M625.464 407.075H632.3V413.907H625.464V407.075Z" fill="white"/>
<path d="M634.537 416.019H641.373V422.852H634.537V416.019Z" fill="white"/>
<path d="M625.464 416.019H632.3V422.852H625.464V416.019Z" fill="white"/>
<path d="M634.537 424.963H641.373V431.796H634.537V424.963Z" fill="white"/>
<path d="M625.464 424.963H632.3V431.796H625.464V424.963Z" fill="white"/>
<path d="M634.537 433.783H641.373V440.615H634.537V433.783Z" fill="white"/>
<path d="M625.464 433.783H632.3V440.615H625.464V433.783Z" fill="white"/>
<path d="M634.537 442.727H641.373V449.559H634.537V442.727Z" fill="white"/>
<path d="M625.464 442.727H632.3V449.559H625.464V442.727Z" fill="white"/>
<path d="M634.537 451.671H641.373V458.503H634.537V451.671Z" fill="white"/>
<path d="M625.464 451.671H632.3V458.503H625.464V451.671Z" fill="white"/>
<path d="M634.537 460.615H641.373V467.447H634.537V460.615Z" fill="white"/>
<path d="M625.464 460.615H632.3V467.447H625.464V460.615Z" fill="white"/>
<path d="M634.537 469.559H641.373V476.391H634.537V469.559Z" fill="white"/>
<path d="M625.464 469.559H632.3V476.391H625.464V469.559Z" fill="white"/>
<path d="M634.537 478.379H641.373V485.211H634.537V478.379Z" fill="white"/>
<path d="M625.464 478.379H632.3V485.211H625.464V478.379Z" fill="white"/>
<path d="M634.537 487.323H641.373V494.155H634.537V487.323Z" fill="white"/>
<path d="M625.464 487.323H632.3V494.155H625.464V487.323Z" fill="white"/>
<path d="M634.537 496.267H641.373V503.099H634.537V496.267Z" fill="white"/>
<path d="M625.464 496.267H632.3V503.099H625.464V496.267Z" fill="white"/>
<path d="M634.537 505.211H641.373V512.043H634.537V505.211Z" fill="white"/>
<path d="M625.464 505.211H632.3V512.043H625.464V505.211Z" fill="white"/>
<path d="M634.537 514.155H641.373V520.987H634.537V514.155Z" fill="white"/>
<path d="M625.464 514.155H632.3V520.987H625.464V514.155Z" fill="white"/>
<path d="M634.537 522.975H641.373V529.807H634.537V522.975Z" fill="white"/>
<path d="M625.464 522.975H632.3V529.807H625.464V522.975Z" fill="white"/>
<path d="M616.391 522.975H623.227V529.807H616.391V522.975Z" fill="white"/>
<path d="M634.537 531.919H641.373V538.751H634.537V531.919Z" fill="white"/>
<path d="M625.464 531.919H632.3V538.751H625.464V531.919Z" fill="white"/>
<path d="M616.391 531.919H623.227V538.751H616.391V531.919Z" fill="white"/>
<path d="M634.537 540.863H641.373V547.695H634.537V540.863Z" fill="white"/>
<path d="M625.464 540.863H632.3V547.695H625.464V540.863Z" fill="white"/>
<path d="M616.391 540.863H623.227V547.695H616.391V540.863Z" fill="white"/>
<path d="M634.537 549.807H641.373V556.639H634.537V549.807Z" fill="white"/>
<path d="M625.464 549.807H632.3V556.639H625.464V549.807Z" fill="white"/>
<path d="M616.391 549.807H623.227V556.639H616.391V549.807Z" fill="white"/>
<path d="M634.537 558.75H641.373V565.583H634.537V558.75Z" fill="white"/>
<path d="M625.464 558.75H632.3V565.583H625.464V558.75Z" fill="white"/>
<path d="M616.391 558.75H623.227V565.583H616.391V558.75Z" fill="white"/>
<path d="M619.871 382.604H710.355V399.995H619.871V382.604Z" fill="#4D4D4D"/>
<path opacity="0.19" d="M616.391 407.075H623.227V413.907H616.391V407.075Z" fill="white"/>
<path opacity="0.24" d="M616.391 416.019H623.227V422.851H616.391V416.019Z" fill="white"/>
<path opacity="0.29" d="M616.391 424.963H623.227V431.795H616.391V424.963Z" fill="white"/>
<path opacity="0.39" d="M616.391 433.783H623.227V440.615H616.391V433.783Z" fill="white"/>
<path opacity="0.21" d="M616.391 442.727H623.227V449.559H616.391V442.727Z" fill="white"/>
<path opacity="0.48" d="M616.391 451.671H623.227V458.503H616.391V451.671Z" fill="white"/>
<path opacity="0.32" d="M616.391 460.615H623.227V467.447H616.391V460.615Z" fill="white"/>
<path opacity="0.13" d="M616.391 469.559H623.227V476.391H616.391V469.559Z" fill="white"/>
<path opacity="0.19" d="M616.391 478.379H623.227V485.211H616.391V478.379Z" fill="white"/>
<path opacity="0.03" d="M616.391 487.323H623.227V494.155H616.391V487.323Z" fill="white"/>
<path opacity="0.36" d="M616.391 496.267H623.227V503.099H616.391V496.267Z" fill="white"/>
<path opacity="0.25" d="M616.391 505.211H623.227V512.043H616.391V505.211Z" fill="white"/>
<path d="M616.391 514.155H623.227V520.987H616.391V514.155Z" fill="white"/>
<path d="M340.34 477.633H381.356V573.657H340.34V477.633Z" fill="#333333"/>
<path d="M362.712 472.789H381.356V478.254H362.712V472.789Z" fill="#333333"/>
<path d="M370.543 469.683H381.356V472.789H370.543V469.683Z" fill="#333333"/>
<path opacity="0.06" d="M357.492 484.341H364.204V489.31H357.492V484.341Z" fill="white"/>
<path opacity="0.12" d="M357.492 496.639H364.204V501.608H357.492V496.639Z" fill="white"/>
<path opacity="0.19" d="M357.492 521.235H364.204V526.204H357.492V521.235Z" fill="white"/>
<path opacity="0.14" d="M357.492 545.831H364.204V550.8H357.492V545.831Z" fill="white"/>
<path opacity="0.1" d="M357.492 558.129H364.204V563.098H357.492V558.129Z" fill="white"/>
<path d="M443.253 488.068H499.433V539.496H443.253V488.068Z" fill="#333333"/>
<path d="M452.078 483.472H490.484V505.583H452.078V483.472Z" fill="#333333"/>
<path d="M439.152 520.49H495.331V571.918H439.152V520.49Z" fill="#333333"/>
<path d="M448.1 515.894H486.506V538.005H448.1V515.894Z" fill="#333333"/>
<path d="M364.328 513.658H420.508V572.912H364.328V513.658Z" fill="#333333"/>
<path d="M373.153 508.44H411.559V534.03H373.153V508.44Z" fill="#333333"/>
<path d="M176.276 531.67H232.455V588.937H176.276V531.67Z" fill="#333333"/>
<path d="M185.1 526.577H223.506V551.297H185.1V526.577Z" fill="#333333"/>
<path d="M298.081 413.41H360.848V572.788H298.081V413.41Z" fill="#333333"/>
<path opacity="0.46" d="M342.577 420.615H357.741V423.473H342.577V420.615Z" fill="#E6E6E6"/>
<path opacity="0.34" d="M321.821 420.615H336.984V423.473H321.821V420.615Z" fill="#E6E6E6"/>
<path opacity="0.52" d="M301.188 420.615H316.352V423.473H301.188V420.615Z" fill="#E6E6E6"/>
<path opacity="0.54" d="M342.577 427.199H357.741V430.056H342.577V427.199Z" fill="#E6E6E6"/>
<path opacity="0.3" d="M321.821 427.199H336.984V430.056H321.821V427.199Z" fill="#E6E6E6"/>
<path opacity="0.06" d="M301.188 427.199H316.352V430.056H301.188V427.199Z" fill="#E6E6E6"/>
<path opacity="0.15" d="M342.577 433.783H357.741V436.64H342.577V433.783Z" fill="#E6E6E6"/>
<path opacity="0.42" d="M321.821 433.783H336.984V436.64H321.821V433.783Z" fill="#E6E6E6"/>
<path opacity="0.48" d="M301.188 433.783H316.352V436.64H301.188V433.783Z" fill="#E6E6E6"/>
<path opacity="0.18" d="M342.577 440.367H357.741V443.224H342.577V440.367Z" fill="#E6E6E6"/>
<path opacity="0.28" d="M301.188 440.367H316.352V443.224H301.188V440.367Z" fill="#E6E6E6"/>
<path opacity="0.29" d="M342.577 446.95H357.741V449.808H342.577V446.95Z" fill="#E6E6E6"/>
<path opacity="0.28" d="M321.821 446.95H336.984V449.808H321.821V446.95Z" fill="#E6E6E6"/>
<path opacity="0.56" d="M301.188 446.95H316.352V449.808H301.188V446.95Z" fill="#E6E6E6"/>
<path opacity="0.41" d="M342.577 453.534H357.741V456.392H342.577V453.534Z" fill="#E6E6E6"/>
<path opacity="0.16" d="M321.821 453.534H336.984V456.392H321.821V453.534Z" fill="#E6E6E6"/>
<path opacity="0.4" d="M301.188 453.534H316.352V456.392H301.188V453.534Z" fill="#E6E6E6"/>
<path opacity="0.1" d="M342.577 460.118H357.741V462.975H342.577V460.118Z" fill="#E6E6E6"/>
<path opacity="0.17" d="M321.821 460.118H336.984V462.975H321.821V460.118Z" fill="#E6E6E6"/>
<path opacity="0.08" d="M301.188 460.118H316.352V462.975H301.188V460.118Z" fill="#E6E6E6"/>
<path opacity="0.49" d="M342.577 466.702H357.741V469.559H342.577V466.702Z" fill="#E6E6E6"/>
<path opacity="0.58" d="M321.821 466.702H336.984V469.559H321.821V466.702Z" fill="#E6E6E6"/>
<path opacity="0.58" d="M301.188 466.702H316.352V469.559H301.188V466.702Z" fill="#E6E6E6"/>
<path opacity="0.26" d="M342.577 473.286H357.741V476.143H342.577V473.286Z" fill="#E6E6E6"/>
<path opacity="0.37" d="M321.821 473.286H336.984V476.143H321.821V473.286Z" fill="#E6E6E6"/>
<path opacity="0.34" d="M301.188 473.286H316.352V476.143H301.188V473.286Z" fill="#E6E6E6"/>
<path opacity="0.55" d="M342.577 479.869H357.741V482.727H342.577V479.869Z" fill="#E6E6E6"/>
<path opacity="0.12" d="M321.821 479.869H336.984V482.727H321.821V479.869Z" fill="#E6E6E6"/>
<path opacity="0.6" d="M301.188 479.869H316.352V482.727H301.188V479.869Z" fill="#E6E6E6"/>
<path opacity="0.02" d="M342.577 486.453H357.741V489.31H342.577V486.453Z" fill="#E6E6E6"/>
<path opacity="0.28" d="M321.821 486.453H336.984V489.31H321.821V486.453Z" fill="#E6E6E6"/>
<path opacity="0.21" d="M301.188 486.453H316.352V489.31H301.188V486.453Z" fill="#E6E6E6"/>
<path opacity="0.57" d="M342.577 493.037H357.741V495.894H342.577V493.037Z" fill="#E6E6E6"/>
<path opacity="0.38" d="M321.821 493.037H336.984V495.894H321.821V493.037Z" fill="#E6E6E6"/>
<path opacity="0.25" d="M301.188 493.037H316.352V495.894H301.188V493.037Z" fill="#E6E6E6"/>
<path opacity="0.15" d="M342.577 499.621H357.741V502.478H342.577V499.621Z" fill="#E6E6E6"/>
<path opacity="0.47" d="M321.821 499.621H336.984V502.478H321.821V499.621Z" fill="#E6E6E6"/>
<path opacity="0.3" d="M301.188 499.621H316.352V502.478H301.188V499.621Z" fill="#E6E6E6"/>
<path opacity="0.4" d="M342.577 506.205H357.741V509.062H342.577V506.205Z" fill="#E6E6E6"/>
<path opacity="0.39" d="M321.821 506.205H336.984V509.062H321.821V506.205Z" fill="#E6E6E6"/>
<path opacity="0.24" d="M301.188 506.205H316.352V509.062H301.188V506.205Z" fill="#E6E6E6"/>
<path opacity="0.46" d="M342.577 512.788H357.741V515.646H342.577V512.788Z" fill="#E6E6E6"/>
<path opacity="0.22" d="M321.821 512.788H336.984V515.646H321.821V512.788Z" fill="#E6E6E6"/>
<path opacity="0.11" d="M301.188 512.788H316.352V515.646H301.188V512.788Z" fill="#E6E6E6"/>
<path opacity="0.11" d="M321.821 519.372H336.984V522.229H321.821V519.372Z" fill="#E6E6E6"/>
<path opacity="0.02" d="M301.188 519.372H316.352V522.229H301.188V519.372Z" fill="#E6E6E6"/>
<path opacity="0.27" d="M342.577 525.956H357.741V528.813H342.577V525.956Z" fill="#E6E6E6"/>
<path opacity="0.21" d="M321.821 525.956H336.984V528.813H321.821V525.956Z" fill="#E6E6E6"/>
<path opacity="0.49" d="M301.188 525.956H316.352V528.813H301.188V525.956Z" fill="#E6E6E6"/>
<path opacity="0.6" d="M342.577 532.54H357.741V535.397H342.577V532.54Z" fill="#E6E6E6"/>
<path opacity="0.31" d="M321.821 532.54H336.984V535.397H321.821V532.54Z" fill="#E6E6E6"/>
<path opacity="0.22" d="M301.188 532.54H316.352V535.397H301.188V532.54Z" fill="#E6E6E6"/>
<path opacity="0.54" d="M342.577 539.124H357.741V541.981H342.577V539.124Z" fill="#E6E6E6"/>
<path opacity="0.6" d="M321.821 539.124H336.984V541.981H321.821V539.124Z" fill="#E6E6E6"/>
<path opacity="0.08" d="M301.188 539.124H316.352V541.981H301.188V539.124Z" fill="#E6E6E6"/>
<path opacity="0.55" d="M321.821 545.707H336.984V548.564H321.821V545.707Z" fill="#E6E6E6"/>
<path d="M301.188 545.707H316.352V548.564H301.188V545.707Z" fill="#E6E6E6"/>
<path opacity="0.6" d="M341.583 420.615H342.577V548.564H341.583V420.615Z" fill="#E6E6E6"/>
<path opacity="0.6" d="M316.352 420.615H317.346V548.564H316.352V420.615Z" fill="#E6E6E6"/>
<path d="M266.76 413.41H298.081V572.788H266.76V413.41Z" fill="#4D4D4D"/>
<path opacity="0.69" d="M271.358 420.615H294.974V423.473H271.358V420.615Z" fill="#E6E6E6"/>
<path opacity="0.79" d="M271.358 427.199H294.974V430.056H271.358V427.199Z" fill="#E6E6E6"/>
<path opacity="0.19" d="M271.358 433.783H294.974V436.64H271.358V433.783Z" fill="#E6E6E6"/>
<path opacity="0.88" d="M271.358 440.367H294.974V443.224H271.358V440.367Z" fill="#E6E6E6"/>
<path opacity="0.5" d="M271.358 446.95H294.974V449.808H271.358V446.95Z" fill="#E6E6E6"/>
<path opacity="0.25" d="M271.358 453.534H294.974V456.392H271.358V453.534Z" fill="#E6E6E6"/>
<path opacity="0.91" d="M271.358 460.118H294.974V462.975H271.358V460.118Z" fill="#E6E6E6"/>
<path opacity="0.02" d="M271.358 466.702H294.974V469.559H271.358V466.702Z" fill="#E6E6E6"/>
<path opacity="0.53" d="M271.358 473.286H294.974V476.143H271.358V473.286Z" fill="#E6E6E6"/>
<path opacity="0.65" d="M271.358 479.869H294.974V482.727H271.358V479.869Z" fill="#E6E6E6"/>
<path d="M271.358 486.453H294.974V489.31H271.358V486.453Z" fill="#E6E6E6"/>
<path opacity="0.8" d="M271.358 493.037H294.974V495.894H271.358V493.037Z" fill="#E6E6E6"/>
<path opacity="0.82" d="M271.358 499.621H294.974V502.478H271.358V499.621Z" fill="#E6E6E6"/>
<path opacity="0.75" d="M271.358 506.205H294.974V509.062H271.358V506.205Z" fill="#E6E6E6"/>
<path opacity="0.31" d="M271.358 512.788H294.974V515.646H271.358V512.788Z" fill="#E6E6E6"/>
<path opacity="0.22" d="M271.358 519.372H294.974V522.229H271.358V519.372Z" fill="#E6E6E6"/>
<path opacity="0.43" d="M271.358 525.956H294.974V528.813H271.358V525.956Z" fill="#E6E6E6"/>
<path opacity="0.68" d="M271.358 532.54H294.974V535.397H271.358V532.54Z" fill="#E6E6E6"/>
<path opacity="0.38" d="M271.358 539.124H294.974V541.981H271.358V539.124Z" fill="#E6E6E6"/>
<path opacity="0.84" d="M271.358 545.707H294.974V548.564H271.358V545.707Z" fill="#E6E6E6"/>
<path d="M349.786 404.963V413.41H309.143V404.963H349.786ZM340.713 410.678H344.939V407.82H340.713V410.678ZM334.125 410.678H338.227V407.82H334.125V410.678ZM327.414 410.678H331.515V407.82H327.414V410.678ZM320.702 410.678H324.928V407.82H320.702V410.678ZM313.99 410.678H318.216V407.82H313.99V410.678Z" fill="#333333"/>
<path d="M301.685 407.821H302.804V410.678H301.685V407.821Z" fill="#333333"/>
<path d="M309.143 404.963V413.41H290.002V404.963H309.143ZM301.685 410.678H305.787V407.82H301.685V410.678ZM292.861 410.678H296.962V407.82H292.861V410.678Z" fill="#4D4D4D"/>
<path d="M292.985 407.821H294.104V410.678H292.985V407.821Z" fill="#333333"/>
<path d="M289.754 583.595H374.272L289.754 521.235V583.595Z" fill="#333333"/>
<path d="M415.785 379.622H422.621V405.585H415.785V379.622Z" fill="#4D4D4D"/>
<path d="M422.496 379.622H429.457V405.585H422.496V379.622Z" fill="#333333"/>
<path d="M408.7 379.622H415.66V405.585H408.7V379.622Z" fill="#666666"/>
<path d="M388.565 423.348H407.954V571.421H388.565V423.348Z" fill="#666666"/>
<path d="M430.7 423.348H447.603V571.421H430.7V423.348Z" fill="#333333"/>
<path d="M407.954 423.348H430.824V571.421H407.954V423.348Z" fill="#4D4D4D"/>
<path opacity="0.6" d="M442.756 427.696H445.242V569.434H442.756V427.696Z" fill="#E6E6E6"/>
<path opacity="0.6" d="M437.909 427.696H440.394V569.434H437.909V427.696Z" fill="#E6E6E6"/>
<path opacity="0.6" d="M433.061 427.696H435.547V569.434H433.061V427.696Z" fill="#E6E6E6"/>
<path d="M404.101 427.696H406.587V569.434H404.101V427.696Z" fill="#E6E6E6"/>
<path d="M399.254 427.696H401.74V569.434H399.254V427.696Z" fill="#E6E6E6"/>
<path d="M389.808 427.696H392.294V569.434H389.808V427.696Z" fill="#E6E6E6"/>
<path d="M394.407 427.696H396.892V569.434H394.407V427.696Z" fill="#E6E6E6"/>
<path opacity="0.8" d="M427.965 569.434H410.813V427.696H427.965V569.434ZM425.231 430.18H413.548V566.949H425.231V430.18Z" fill="#E6E6E6"/>
<path opacity="0.8" d="M422.994 564.589H415.66V432.417H422.994V564.589ZM420.508 435.522H419.638H419.141H418.146V561.483H419.141H419.638H420.508V435.522Z" fill="#E6E6E6"/>
<path opacity="0.8" d="M419.141 435.522H419.638V561.483H419.141V435.522Z" fill="#E6E6E6"/>
<path d="M410.565 397.386H427.717V423.348H410.565V397.386Z" fill="#4D4D4D"/>
<path d="M410.565 397.386H427.717V423.348H410.565V397.386Z" fill="#4D4D4D"/>
<path d="M393.412 397.386H410.565V423.348H393.412V397.386Z" fill="#666666"/>
<path d="M427.717 397.386H444.869V423.348H427.717V397.386Z" fill="#333333"/>
<path d="M408.824 379.622H429.457L422.621 384.342H415.66L408.824 379.622Z" fill="#808080"/>
<path d="M40.0525 370.057H49.9958V399.249H40.0525V370.057Z" fill="#4D4D4D"/>
<path d="M50.1201 370.057H60.0634V399.249H50.1201V370.057Z" fill="#333333"/>
<path d="M30.1091 370.057H40.0525V399.249H30.1091V370.057Z" fill="#666666"/>
<path d="M0.776489 419.373H28.8663V586.203H0.776489V419.373Z" fill="#666666"/>
<path d="M61.9278 419.373H86.2888V586.203H61.9278V419.373Z" fill="#333333"/>
<path d="M28.8663 419.373H61.9278V586.203H28.8663V419.373Z" fill="#4D4D4D"/>
<path opacity="0.4" d="M79.3286 424.342H82.9329V583.968H79.3286V424.342Z" fill="#E6E6E6"/>
<path opacity="0.4" d="M72.2439 424.342H75.8484V583.968H72.2439V424.342Z" fill="#E6E6E6"/>
<path opacity="0.4" d="M65.1593 424.342H68.7638V583.968H65.1593V424.342Z" fill="#E6E6E6"/>
<path d="M23.2731 424.342H26.8776V583.968H23.2731V424.342Z" fill="#E6E6E6"/>
<path d="M16.1886 424.342H19.793V583.968H16.1886V424.342Z" fill="#E6E6E6"/>
<path d="M2.64087 424.342H6.2453V583.968H2.64087V424.342Z" fill="#E6E6E6"/>
<path d="M9.22827 424.342H12.8328V583.968H9.22827V424.342Z" fill="#E6E6E6"/>
<path d="M57.7018 583.968H32.8436V424.342H57.7018V583.968ZM53.8489 427.075H36.9452V581.235H53.8489V427.075Z" fill="#E6E6E6"/>
<path d="M50.7416 578.626H40.0525V429.684H50.7416V578.626ZM47.0128 433.162H45.6456H45.0241H43.657V575.148H45.0241H45.6456H47.0128V433.162Z" fill="#E6E6E6"/>
<path d="M45.0241 433.162H45.6456V575.148H45.0241V433.162Z" fill="#E6E6E6"/>
<path d="M32.595 390.181H57.4532V419.373H32.595V390.181Z" fill="#4D4D4D"/>
<path d="M32.595 390.181H57.4532V419.373H32.595V390.181Z" fill="#4D4D4D"/>
<path d="M7.73676 390.181H32.595V419.373H7.73676V390.181Z" fill="#666666"/>
<path d="M57.329 390.181H82.1873V419.373H57.329V390.181Z" fill="#333333"/>
<path d="M29.9849 370.057H60.0634L49.9958 375.398H40.0525L29.9849 370.057Z" fill="#808080"/>
<path d="M111.768 442.479H179.756V465.087H111.768V442.479Z" fill="#E6E6E6"/>
<path d="M153.033 442.479H179.756V465.087H153.033V442.479Z" fill="#B3B3B3"/>
<path d="M153.033 465.211H205.857V575.024H153.033V465.211Z" fill="#333333"/>
<path d="M70.5038 465.211H153.033V575.024H70.5038V465.211Z" fill="#4D4D4D"/>
<path d="M159.496 454.031H200.14V465.211H159.496V454.031Z" fill="#333333"/>
<path d="M82.8087 454.031H140.853V465.211H82.8087V454.031Z" fill="#4D4D4D"/>
<path d="M129.791 433.907H153.033V442.479H129.791V433.907Z" fill="#E6E6E6"/>
<path d="M141.474 425.212H153.033V433.783H141.474V425.212Z" fill="#4D4D4D"/>
<path d="M153.157 425.212H164.717V433.783H153.157V425.212Z" fill="#333333"/>
<path d="M153.033 433.907H170.807V442.479H153.033V433.907Z" fill="#B3B3B3"/>
<path d="M153.779 425.212L153.033 405.336L152.412 425.212H153.779Z" fill="#333333"/>
<path opacity="0.12" d="M189.202 469.683H193.552V474.031H189.202V469.683Z" fill="white"/>
<path opacity="0.25" d="M183.236 469.683H187.586V474.031H183.236V469.683Z" fill="white"/>
<path opacity="0.36" d="M177.27 469.683H181.62V474.031H177.27V469.683Z" fill="white"/>
<path opacity="0.12" d="M171.304 469.683H175.654V474.031H171.304V469.683Z" fill="white"/>
<path opacity="0.14" d="M165.338 469.683H169.688V474.031H165.338V469.683Z" fill="white"/>
<path opacity="0.28" d="M189.202 475.398H193.552V479.745H189.202V475.398Z" fill="white"/>
<path opacity="0.4" d="M183.236 475.398H187.586V479.745H183.236V475.398Z" fill="white"/>
<path opacity="0.16" d="M177.27 475.398H181.62V479.745H177.27V475.398Z" fill="white"/>
<path opacity="0.17" d="M165.338 475.398H169.688V479.745H165.338V475.398Z" fill="white"/>
<path opacity="0.27" d="M189.202 481.112H193.552V485.46H189.202V481.112Z" fill="white"/>
<path opacity="0.45" d="M183.236 481.112H187.586V485.46H183.236V481.112Z" fill="white"/>
<path opacity="0.45" d="M177.27 481.112H181.62V485.46H177.27V481.112Z" fill="white"/>
<path opacity="0.48" d="M171.304 481.112H175.654V485.46H171.304V481.112Z" fill="white"/>
<path opacity="0.25" d="M165.338 481.112H169.688V485.46H165.338V481.112Z" fill="white"/>
<path opacity="0.28" d="M189.202 486.826H193.552V491.174H189.202V486.826Z" fill="white"/>
<path opacity="0.13" d="M183.236 486.826H187.586V491.174H183.236V486.826Z" fill="white"/>
<path opacity="0.07" d="M177.27 486.826H181.62V491.174H177.27V486.826Z" fill="white"/>
<path opacity="0.39" d="M171.304 486.826H175.654V491.174H171.304V486.826Z" fill="white"/>
<path opacity="0.47" d="M165.338 486.826H169.688V491.174H165.338V486.826Z" fill="white"/>
<path opacity="0.28" d="M189.202 492.54H193.552V496.888H189.202V492.54Z" fill="white"/>
<path opacity="0.2" d="M183.236 492.54H187.586V496.888H183.236V492.54Z" fill="white"/>
<path opacity="0.04" d="M177.27 492.54H181.62V496.888H177.27V492.54Z" fill="white"/>
<path opacity="0.43" d="M171.304 492.54H175.654V496.888H171.304V492.54Z" fill="white"/>
<path opacity="0.48" d="M165.338 492.54H169.688V496.888H165.338V492.54Z" fill="white"/>
<path opacity="0.28" d="M189.202 498.254H193.552V502.602H189.202V498.254Z" fill="white"/>
<path opacity="0.19" d="M183.236 498.254H187.586V502.602H183.236V498.254Z" fill="white"/>
<path opacity="0.01" d="M177.27 498.254H181.62V502.602H177.27V498.254Z" fill="white"/>
<path opacity="0.27" d="M171.304 498.254H175.654V502.602H171.304V498.254Z" fill="white"/>
<path opacity="0.24" d="M165.338 498.254H169.688V502.602H165.338V498.254Z" fill="white"/>
<path opacity="0.07" d="M189.202 504.093H193.552V508.441H189.202V504.093Z" fill="white"/>
<path opacity="0.25" d="M183.236 504.093H187.586V508.441H183.236V504.093Z" fill="white"/>
<path opacity="0.26" d="M177.27 504.093H181.62V508.441H177.27V504.093Z" fill="white"/>
<path opacity="0.39" d="M171.304 504.093H175.654V508.441H171.304V504.093Z" fill="white"/>
<path opacity="0.22" d="M165.338 504.093H169.688V508.441H165.338V504.093Z" fill="white"/>
<path opacity="0.15" d="M189.202 509.807H193.552V514.155H189.202V509.807Z" fill="white"/>
<path opacity="0.23" d="M183.236 509.807H187.586V514.155H183.236V509.807Z" fill="white"/>
<path opacity="0.05" d="M177.27 509.807H181.62V514.155H177.27V509.807Z" fill="white"/>
<path opacity="0.2" d="M171.304 509.807H175.654V514.155H171.304V509.807Z" fill="white"/>
<path opacity="0.31" d="M165.338 509.807H169.688V514.155H165.338V509.807Z" fill="white"/>
<path opacity="0.15" d="M189.202 515.521H193.552V519.869H189.202V515.521Z" fill="white"/>
<path opacity="0.33" d="M183.236 515.521H187.586V519.869H183.236V515.521Z" fill="white"/>
<path opacity="0.46" d="M177.27 515.521H181.62V519.869H177.27V515.521Z" fill="white"/>
<path opacity="0.25" d="M171.304 515.521H175.654V519.869H171.304V515.521Z" fill="white"/>
<path opacity="0.43" d="M165.338 515.521H169.688V519.869H165.338V515.521Z" fill="white"/>
<path opacity="0.4" d="M189.202 521.236H193.552V525.583H189.202V521.236Z" fill="white"/>
<path opacity="0.39" d="M183.236 521.236H187.586V525.583H183.236V521.236Z" fill="white"/>
<path opacity="0.01" d="M177.27 521.236H181.62V525.583H177.27V521.236Z" fill="white"/>
<path opacity="0.12" d="M171.304 521.236H175.654V525.583H171.304V521.236Z" fill="white"/>
<path opacity="0.07" d="M165.338 521.236H169.688V525.583H165.338V521.236Z" fill="white"/>
<path opacity="0.07" d="M189.202 526.95H193.552V531.298H189.202V526.95Z" fill="white"/>
<path opacity="0.02" d="M183.236 526.95H187.586V531.298H183.236V526.95Z" fill="white"/>
<path opacity="0.12" d="M177.27 526.95H181.62V531.298H177.27V526.95Z" fill="white"/>
<path opacity="0.23" d="M171.304 526.95H175.654V531.298H171.304V526.95Z" fill="white"/>
<path opacity="0.26" d="M165.338 526.95H169.688V531.298H165.338V526.95Z" fill="white"/>
<path opacity="0.27" d="M189.202 532.664H193.552V537.012H189.202V532.664Z" fill="white"/>
<path opacity="0.38" d="M183.236 532.664H187.586V537.012H183.236V532.664Z" fill="white"/>
<path opacity="0.05" d="M177.27 532.664H181.62V537.012H177.27V532.664Z" fill="white"/>
<path opacity="0.45" d="M171.304 532.664H175.654V537.012H171.304V532.664Z" fill="white"/>
<path opacity="0.15" d="M165.338 532.664H169.688V537.012H165.338V532.664Z" fill="white"/>
<path opacity="0.06" d="M189.202 538.378H193.552V542.726H189.202V538.378Z" fill="white"/>
<path opacity="0.47" d="M183.236 538.378H187.586V542.726H183.236V538.378Z" fill="white"/>
<path opacity="0.15" d="M177.27 538.378H181.62V542.726H177.27V538.378Z" fill="white"/>
<path opacity="0.44" d="M171.304 538.378H175.654V542.726H171.304V538.378Z" fill="white"/>
<path opacity="0.14" d="M165.338 538.378H169.688V542.726H165.338V538.378Z" fill="white"/>
<path opacity="0.15" d="M189.202 544.093H193.552V548.44H189.202V544.093Z" fill="white"/>
<path opacity="0.43" d="M183.236 544.093H187.586V548.44H183.236V544.093Z" fill="white"/>
<path opacity="0.07" d="M177.27 544.093H181.62V548.44H177.27V544.093Z" fill="white"/>
<path opacity="0.47" d="M171.304 544.093H175.654V548.44H171.304V544.093Z" fill="white"/>
<path opacity="0.11" d="M165.338 544.093H169.688V548.44H165.338V544.093Z" fill="white"/>
<path opacity="0.07" d="M189.202 549.807H193.552V554.154H189.202V549.807Z" fill="white"/>
<path opacity="0.34" d="M183.236 549.807H187.586V554.154H183.236V549.807Z" fill="white"/>
<path opacity="0.5" d="M177.27 549.807H181.62V554.154H177.27V549.807Z" fill="white"/>
<path opacity="0.36" d="M171.304 549.807H175.654V554.154H171.304V549.807Z" fill="white"/>
<path opacity="0.34" d="M165.338 549.807H169.688V554.154H165.338V549.807Z" fill="white"/>
<path opacity="0.47" d="M189.202 555.521H193.552V559.869H189.202V555.521Z" fill="white"/>
<path opacity="0.41" d="M183.236 555.521H187.586V559.869H183.236V555.521Z" fill="white"/>
<path opacity="0.3" d="M177.27 555.521H181.62V559.869H177.27V555.521Z" fill="white"/>
<path opacity="0.33" d="M171.304 555.521H175.654V559.869H171.304V555.521Z" fill="white"/>
<path opacity="0.12" d="M165.338 555.521H169.688V559.869H165.338V555.521Z" fill="white"/>
<path opacity="0.3" d="M138.615 469.683H142.966V474.031H138.615V469.683Z" fill="white"/>
<path opacity="0.72" d="M132.898 469.683H137.248V474.031H132.898V469.683Z" fill="white"/>
<path opacity="0.7" d="M127.056 469.683H131.406V474.031H127.056V469.683Z" fill="white"/>
<path opacity="0.52" d="M121.215 469.683H125.565V474.031H121.215V469.683Z" fill="white"/>
<path opacity="0.2" d="M115.373 469.683H119.723V474.031H115.373V469.683Z" fill="white"/>
<path opacity="0.32" d="M109.656 469.683H114.006V474.031H109.656V469.683Z" fill="white"/>
<path opacity="0.13" d="M103.814 469.683H108.164V474.031H103.814V469.683Z" fill="white"/>
<path opacity="0.38" d="M97.9722 469.683H102.322V474.031H97.9722V469.683Z" fill="white"/>
<path opacity="0.61" d="M92.2548 469.683H96.605V474.031H92.2548V469.683Z" fill="white"/>
<path d="M86.4131 469.683H90.7634V474.031H86.4131V469.683Z" fill="white"/>
<path opacity="0.91" d="M80.5715 469.683H84.9216V474.031H80.5715V469.683Z" fill="white"/>
<path opacity="0.66" d="M138.615 475.398H142.966V479.745H138.615V475.398Z" fill="white"/>
<path opacity="0.31" d="M132.898 475.398H137.248V479.745H132.898V475.398Z" fill="white"/>
<path opacity="0.95" d="M127.056 475.398H131.406V479.745H127.056V475.398Z" fill="white"/>
<path opacity="0.7" d="M121.215 475.398H125.565V479.745H121.215V475.398Z" fill="white"/>
<path opacity="0.12" d="M115.373 475.398H119.723V479.745H115.373V475.398Z" fill="white"/>
<path opacity="0.24" d="M109.656 475.398H114.006V479.745H109.656V475.398Z" fill="white"/>
<path opacity="0.66" d="M103.814 475.398H108.164V479.745H103.814V475.398Z" fill="white"/>
<path opacity="0.71" d="M97.9722 475.398H102.322V479.745H97.9722V475.398Z" fill="white"/>
<path opacity="0.42" d="M92.2548 475.398H96.605V479.745H92.2548V475.398Z" fill="white"/>
<path opacity="0.09" d="M86.4131 475.398H90.7634V479.745H86.4131V475.398Z" fill="white"/>
<path opacity="0.32" d="M80.5715 475.398H84.9216V479.745H80.5715V475.398Z" fill="white"/>
<path opacity="0.65" d="M138.615 481.112H142.966V485.46H138.615V481.112Z" fill="white"/>
<path d="M132.898 481.112H137.248V485.46H132.898V481.112Z" fill="white"/>
<path d="M127.056 481.112H131.406V485.46H127.056V481.112Z" fill="white"/>
<path opacity="0.71" d="M121.215 481.112H125.565V485.46H121.215V481.112Z" fill="white"/>
<path opacity="0.2" d="M115.373 481.112H119.723V485.46H115.373V481.112Z" fill="white"/>
<path opacity="0.19" d="M109.656 481.112H114.006V485.46H109.656V481.112Z" fill="white"/>
<path opacity="0.62" d="M103.814 481.112H108.164V485.46H103.814V481.112Z" fill="white"/>
<path opacity="0.93" d="M97.9722 481.112H102.322V485.46H97.9722V481.112Z" fill="white"/>
<path opacity="0.56" d="M92.2548 481.112H96.605V485.46H92.2548V481.112Z" fill="white"/>
<path opacity="0.57" d="M86.4131 481.112H90.7634V485.46H86.4131V481.112Z" fill="white"/>
<path opacity="0.52" d="M80.5715 481.112H84.9216V485.46H80.5715V481.112Z" fill="white"/>
<path opacity="0.74" d="M138.615 486.826H142.966V491.174H138.615V486.826Z" fill="white"/>
<path opacity="0.56" d="M132.898 486.826H137.248V491.174H132.898V486.826Z" fill="white"/>
<path opacity="0.78" d="M127.056 486.826H131.406V491.174H127.056V486.826Z" fill="white"/>
<path opacity="0.41" d="M121.215 486.826H125.565V491.174H121.215V486.826Z" fill="white"/>
<path opacity="0.14" d="M115.373 486.826H119.723V491.174H115.373V486.826Z" fill="white"/>
<path opacity="0.28" d="M109.656 486.826H114.006V491.174H109.656V486.826Z" fill="white"/>
<path opacity="0.36" d="M103.814 486.826H108.164V491.174H103.814V486.826Z" fill="white"/>
<path opacity="0.14" d="M97.9722 486.826H102.322V491.174H97.9722V486.826Z" fill="white"/>
<path opacity="0.5" d="M92.2548 486.826H96.605V491.174H92.2548V486.826Z" fill="white"/>
<path opacity="0.98" d="M86.4131 486.826H90.7634V491.174H86.4131V486.826Z" fill="white"/>
<path opacity="0.59" d="M80.5715 486.826H84.9216V491.174H80.5715V486.826Z" fill="white"/>
<path opacity="0.07" d="M138.615 492.54H142.966V496.888H138.615V492.54Z" fill="white"/>
<path opacity="0.1" d="M132.898 492.54H137.248V496.888H132.898V492.54Z" fill="white"/>
<path opacity="0.88" d="M127.056 492.54H131.406V496.888H127.056V492.54Z" fill="white"/>
<path opacity="0.68" d="M121.215 492.54H125.565V496.888H121.215V492.54Z" fill="white"/>
<path opacity="0.81" d="M115.373 492.54H119.723V496.888H115.373V492.54Z" fill="white"/>
<path opacity="0.62" d="M109.656 492.54H114.006V496.888H109.656V492.54Z" fill="white"/>
<path opacity="0.97" d="M103.814 492.54H108.164V496.888H103.814V492.54Z" fill="white"/>
<path opacity="0.81" d="M97.9722 492.54H102.322V496.888H97.9722V492.54Z" fill="white"/>
<path opacity="0.79" d="M92.2548 492.54H96.605V496.888H92.2548V492.54Z" fill="white"/>
<path opacity="0.03" d="M86.4131 492.54H90.7634V496.888H86.4131V492.54Z" fill="white"/>
<path opacity="0.95" d="M80.5715 492.54H84.9216V496.888H80.5715V492.54Z" fill="white"/>
<path opacity="0.62" d="M138.615 498.254H142.966V502.602H138.615V498.254Z" fill="white"/>
<path opacity="0.22" d="M132.898 498.254H137.248V502.602H132.898V498.254Z" fill="white"/>
<path opacity="0.42" d="M127.056 498.254H131.406V502.602H127.056V498.254Z" fill="white"/>
<path opacity="0.56" d="M121.215 498.254H125.565V502.602H121.215V498.254Z" fill="white"/>
<path opacity="0.03" d="M115.373 498.254H119.723V502.602H115.373V498.254Z" fill="white"/>
<path opacity="0.64" d="M109.656 498.254H114.006V502.602H109.656V498.254Z" fill="white"/>
<path opacity="0.82" d="M103.814 498.254H108.164V502.602H103.814V498.254Z" fill="white"/>
<path opacity="0.52" d="M97.9722 498.254H102.322V502.602H97.9722V498.254Z" fill="white"/>
<path opacity="0.46" d="M92.2548 498.254H96.605V502.602H92.2548V498.254Z" fill="white"/>
<path opacity="0.27" d="M86.4131 498.254H90.7634V502.602H86.4131V498.254Z" fill="white"/>
<path opacity="0.46" d="M80.5715 498.254H84.9216V502.602H80.5715V498.254Z" fill="white"/>
<path opacity="0.66" d="M138.615 504.093H142.966V508.441H138.615V504.093Z" fill="white"/>
<path opacity="0.7" d="M132.898 504.093H137.248V508.441H132.898V504.093Z" fill="white"/>
<path opacity="0.94" d="M127.056 504.093H131.406V508.441H127.056V504.093Z" fill="white"/>
<path opacity="0.5" d="M121.215 504.093H125.565V508.441H121.215V504.093Z" fill="white"/>
<path opacity="0.12" d="M115.373 504.093H119.723V508.441H115.373V504.093Z" fill="white"/>
<path opacity="0.36" d="M109.656 504.093H114.006V508.441H109.656V504.093Z" fill="white"/>
<path opacity="0.51" d="M103.814 504.093H108.164V508.441H103.814V504.093Z" fill="white"/>
<path opacity="0.37" d="M97.9722 504.093H102.322V508.441H97.9722V504.093Z" fill="white"/>
<path opacity="0.66" d="M92.2548 504.093H96.605V508.441H92.2548V504.093Z" fill="white"/>
<path opacity="0.42" d="M86.4131 504.093H90.7634V508.441H86.4131V504.093Z" fill="white"/>
<path opacity="0.5" d="M80.5715 504.093H84.9216V508.441H80.5715V504.093Z" fill="white"/>
<path opacity="0.52" d="M138.615 509.807H142.966V514.155H138.615V509.807Z" fill="white"/>
<path opacity="0.61" d="M132.898 509.807H137.248V514.155H132.898V509.807Z" fill="white"/>
<path opacity="0.84" d="M127.056 509.807H131.406V514.155H127.056V509.807Z" fill="white"/>
<path opacity="0.89" d="M121.215 509.807H125.565V514.155H121.215V509.807Z" fill="white"/>
<path opacity="0.33" d="M115.373 509.807H119.723V514.155H115.373V509.807Z" fill="white"/>
<path opacity="0.25" d="M109.656 509.807H114.006V514.155H109.656V509.807Z" fill="white"/>
<path opacity="0.95" d="M103.814 509.807H108.164V514.155H103.814V509.807Z" fill="white"/>
<path opacity="0.09" d="M97.9722 509.807H102.322V514.155H97.9722V509.807Z" fill="white"/>
<path opacity="0.44" d="M92.2548 509.807H96.605V514.155H92.2548V509.807Z" fill="white"/>
<path opacity="0.51" d="M86.4131 509.807H90.7634V514.155H86.4131V509.807Z" fill="white"/>
<path opacity="0.97" d="M80.5715 509.807H84.9216V514.155H80.5715V509.807Z" fill="white"/>
<path opacity="0.26" d="M138.615 515.521H142.966V519.869H138.615V515.521Z" fill="white"/>
<path opacity="0.92" d="M132.898 515.521H137.248V519.869H132.898V515.521Z" fill="white"/>
<path opacity="0.33" d="M127.056 515.521H131.406V519.869H127.056V515.521Z" fill="white"/>
<path opacity="0.23" d="M121.215 515.521H125.565V519.869H121.215V515.521Z" fill="white"/>
<path opacity="0.42" d="M115.373 515.521H119.723V519.869H115.373V515.521Z" fill="white"/>
<path opacity="0.57" d="M109.656 515.521H114.006V519.869H109.656V515.521Z" fill="white"/>
<path opacity="0.73" d="M103.814 515.521H108.164V519.869H103.814V515.521Z" fill="white"/>
<path opacity="0.87" d="M97.9722 515.521H102.322V519.869H97.9722V515.521Z" fill="white"/>
<path opacity="0.22" d="M92.2548 515.521H96.605V519.869H92.2548V515.521Z" fill="white"/>
<path opacity="0.89" d="M86.4131 515.521H90.7634V519.869H86.4131V515.521Z" fill="white"/>
<path opacity="0.73" d="M80.5715 515.521H84.9216V519.869H80.5715V515.521Z" fill="white"/>
<path opacity="0.35" d="M138.615 521.236H142.966V525.583H138.615V521.236Z" fill="white"/>
<path opacity="0.81" d="M132.898 521.236H137.248V525.583H132.898V521.236Z" fill="white"/>
<path opacity="0.56" d="M127.056 521.236H131.406V525.583H127.056V521.236Z" fill="white"/>
<path opacity="0.81" d="M121.215 521.236H125.565V525.583H121.215V521.236Z" fill="white"/>
<path opacity="0.87" d="M115.373 521.236H119.723V525.583H115.373V521.236Z" fill="white"/>
<path opacity="0.39" d="M109.656 521.236H114.006V525.583H109.656V521.236Z" fill="white"/>
<path opacity="0.31" d="M103.814 521.236H108.164V525.583H103.814V521.236Z" fill="white"/>
<path opacity="0.98" d="M97.9722 521.236H102.322V525.583H97.9722V521.236Z" fill="white"/>
<path opacity="0.17" d="M92.2548 521.236H96.605V525.583H92.2548V521.236Z" fill="white"/>
<path opacity="0.06" d="M86.4131 521.236H90.7634V525.583H86.4131V521.236Z" fill="white"/>
<path opacity="0.57" d="M80.5715 521.236H84.9216V525.583H80.5715V521.236Z" fill="white"/>
<path opacity="0.67" d="M138.615 526.95H142.966V531.298H138.615V526.95Z" fill="white"/>
<path opacity="0.83" d="M132.898 526.95H137.248V531.298H132.898V526.95Z" fill="white"/>
<path opacity="0.99" d="M127.056 526.95H131.406V531.298H127.056V526.95Z" fill="white"/>
<path opacity="0.62" d="M121.215 526.95H125.565V531.298H121.215V526.95Z" fill="white"/>
<path opacity="0.87" d="M115.373 526.95H119.723V531.298H115.373V526.95Z" fill="white"/>
<path opacity="0.14" d="M109.656 526.95H114.006V531.298H109.656V526.95Z" fill="white"/>
<path opacity="0.12" d="M103.814 526.95H108.164V531.298H103.814V526.95Z" fill="white"/>
<path opacity="0.11" d="M97.9722 526.95H102.322V531.298H97.9722V526.95Z" fill="white"/>
<path opacity="0.39" d="M92.2548 526.95H96.605V531.298H92.2548V526.95Z" fill="white"/>
<path opacity="0.58" d="M86.4131 526.95H90.7634V531.298H86.4131V526.95Z" fill="white"/>
<path opacity="0.54" d="M80.5715 526.95H84.9216V531.298H80.5715V526.95Z" fill="white"/>
<path opacity="0.99" d="M138.615 532.664H142.966V537.012H138.615V532.664Z" fill="white"/>
<path opacity="0.28" d="M132.898 532.664H137.248V537.012H132.898V532.664Z" fill="white"/>
<path opacity="0.78" d="M127.056 532.664H131.406V537.012H127.056V532.664Z" fill="white"/>
<path opacity="0.65" d="M121.215 532.664H125.565V537.012H121.215V532.664Z" fill="white"/>
<path opacity="0.32" d="M115.373 532.664H119.723V537.012H115.373V532.664Z" fill="white"/>
<path opacity="0.55" d="M109.656 532.664H114.006V537.012H109.656V532.664Z" fill="white"/>
<path opacity="0.4" d="M103.814 532.664H108.164V537.012H103.814V532.664Z" fill="white"/>
<path opacity="0.22" d="M97.9722 532.664H102.322V537.012H97.9722V532.664Z" fill="white"/>
<path opacity="0.87" d="M92.2548 532.664H96.605V537.012H92.2548V532.664Z" fill="white"/>
<path opacity="0.02" d="M86.4131 532.664H90.7634V537.012H86.4131V532.664Z" fill="white"/>
<path opacity="0.39" d="M80.5715 532.664H84.9216V537.012H80.5715V532.664Z" fill="white"/>
<path opacity="0.89" d="M138.615 538.378H142.966V542.726H138.615V538.378Z" fill="white"/>
<path opacity="0.97" d="M132.898 538.378H137.248V542.726H132.898V538.378Z" fill="white"/>
<path opacity="0.79" d="M127.056 538.378H131.406V542.726H127.056V538.378Z" fill="white"/>
<path opacity="0.41" d="M121.215 538.378H125.565V542.726H121.215V538.378Z" fill="white"/>
<path opacity="0.13" d="M115.373 538.378H119.723V542.726H115.373V538.378Z" fill="white"/>
<path opacity="0.9" d="M109.656 538.378H114.006V542.726H109.656V538.378Z" fill="white"/>
<path opacity="0.98" d="M103.814 538.378H108.164V542.726H103.814V538.378Z" fill="white"/>
<path opacity="0.67" d="M97.9722 538.378H102.322V542.726H97.9722V538.378Z" fill="white"/>
<path opacity="0.65" d="M92.2548 538.378H96.605V542.726H92.2548V538.378Z" fill="white"/>
<path opacity="0.89" d="M86.4131 538.378H90.7634V542.726H86.4131V538.378Z" fill="white"/>
<path opacity="0.98" d="M80.5715 538.378H84.9216V542.726H80.5715V538.378Z" fill="white"/>
<path opacity="0.29" d="M138.615 544.093H142.966V548.44H138.615V544.093Z" fill="white"/>
<path opacity="0.74" d="M132.898 544.093H137.248V548.44H132.898V544.093Z" fill="white"/>
<path opacity="0.64" d="M127.056 544.093H131.406V548.44H127.056V544.093Z" fill="white"/>
<path opacity="0.65" d="M121.215 544.093H125.565V548.44H121.215V544.093Z" fill="white"/>
<path opacity="0.07" d="M115.373 544.093H119.723V548.44H115.373V544.093Z" fill="white"/>
<path opacity="0.16" d="M109.656 544.093H114.006V548.44H109.656V544.093Z" fill="white"/>
<path opacity="0.84" d="M103.814 544.093H108.164V548.44H103.814V544.093Z" fill="white"/>
<path opacity="0.88" d="M97.9722 544.093H102.322V548.44H97.9722V544.093Z" fill="white"/>
<path opacity="0.57" d="M92.2548 544.093H96.605V548.44H92.2548V544.093Z" fill="white"/>
<path opacity="0.31" d="M86.4131 544.093H90.7634V548.44H86.4131V544.093Z" fill="white"/>
<path opacity="0.03" d="M80.5715 544.093H84.9216V548.44H80.5715V544.093Z" fill="white"/>
<path opacity="0.3" d="M138.615 549.807H142.966V554.154H138.615V549.807Z" fill="white"/>
<path opacity="0.59" d="M132.898 549.807H137.248V554.154H132.898V549.807Z" fill="white"/>
<path opacity="0.93" d="M127.056 549.807H131.406V554.154H127.056V549.807Z" fill="white"/>
<path opacity="0.06" d="M121.215 549.807H125.565V554.154H121.215V549.807Z" fill="white"/>
<path opacity="0.74" d="M115.373 549.807H119.723V554.154H115.373V549.807Z" fill="white"/>
<path opacity="0.22" d="M109.656 549.807H114.006V554.154H109.656V549.807Z" fill="white"/>
<path opacity="0.51" d="M103.814 549.807H108.164V554.154H103.814V549.807Z" fill="white"/>
<path opacity="0.7" d="M97.9722 549.807H102.322V554.154H97.9722V549.807Z" fill="white"/>
<path opacity="0.47" d="M92.2548 549.807H96.605V554.154H92.2548V549.807Z" fill="white"/>
<path opacity="0.08" d="M86.4131 549.807H90.7634V554.154H86.4131V549.807Z" fill="white"/>
<path opacity="0.93" d="M80.5715 549.807H84.9216V554.154H80.5715V549.807Z" fill="white"/>
<path opacity="0.81" d="M138.615 555.521H142.966V559.869H138.615V555.521Z" fill="white"/>
<path opacity="0.9" d="M132.898 555.521H137.248V559.869H132.898V555.521Z" fill="white"/>
<path opacity="0.55" d="M127.056 555.521H131.406V559.869H127.056V555.521Z" fill="white"/>
<path opacity="0.14" d="M121.215 555.521H125.565V559.869H121.215V555.521Z" fill="white"/>
<path opacity="0.66" d="M115.373 555.521H119.723V559.869H115.373V555.521Z" fill="white"/>
<path opacity="0.92" d="M109.656 555.521H114.006V559.869H109.656V555.521Z" fill="white"/>
<path opacity="0.4" d="M103.814 555.521H108.164V559.869H103.814V555.521Z" fill="white"/>
<path opacity="0.6" d="M97.9722 555.521H102.322V559.869H97.9722V555.521Z" fill="white"/>
<path opacity="0.99" d="M92.2548 555.521H96.605V559.869H92.2548V555.521Z" fill="white"/>
<path opacity="0.68" d="M86.4131 555.521H90.7634V559.869H86.4131V555.521Z" fill="white"/>
<path opacity="0.01" d="M80.5715 555.521H84.9216V559.869H80.5715V555.521Z" fill="white"/>
<path d="M212.072 441.733H253.088V570.179H212.072V441.733Z" fill="#333333"/>
<path d="M234.444 435.273H253.088V442.478H234.444V435.273Z" fill="#333333"/>
<path d="M242.274 431.05H253.088V435.274H242.274V431.05Z" fill="#333333"/>
<path opacity="0.25" d="M229.348 450.801H236.06V457.509H229.348V450.801Z" fill="white"/>
<path opacity="0.15" d="M229.348 467.323H236.06V474.031H229.348V467.323Z" fill="white"/>
<path opacity="0.19" d="M229.348 500.242H236.06V506.95H229.348V500.242Z" fill="white"/>
<path opacity="0.17" d="M229.348 516.639H236.06V523.347H229.348V516.639Z" fill="white"/>
<path opacity="0.22" d="M229.348 533.036H236.06V539.744H229.348V533.036Z" fill="white"/>
<path d="M229.348 549.558H236.06V556.266H229.348V549.558Z" fill="white"/>
<path d="M242.523 513.285H280.929V524.59H242.523V513.285Z" fill="#333333"/>
<path d="M223.382 513.285H242.523V524.59H223.382V513.285Z" fill="#4D4D4D"/>
<path d="M280.929 513.285L268.997 507.571L242.523 513.285H280.929Z" fill="#333333"/>
<path d="M268.997 507.571L242.523 513.285H223.382L268.997 507.571Z" fill="#4D4D4D"/>
<path d="M233.574 521.235H289.754V572.663H233.574V521.235Z" fill="#333333"/>
<path d="M214.93 521.235H233.574V572.663H214.93V521.235Z" fill="#4D4D4D"/>
<path opacity="0.81" d="M219.28 524.838H229.348V528.565H219.28V524.838Z" fill="white"/>
<path opacity="0.76" d="M219.28 531.67H229.348V535.397H219.28V531.67Z" fill="white"/>
<path opacity="0.32" d="M219.28 538.502H229.348V542.229H219.28V538.502Z" fill="white"/>
<path opacity="0.49" d="M219.28 545.459H229.348V549.185H219.28V545.459Z" fill="white"/>
<path opacity="0.1" d="M270.737 524.838H280.805V528.565H270.737V524.838Z" fill="white"/>
<path opacity="0.04" d="M256.692 524.838H266.76V528.565H256.692V524.838Z" fill="white"/>
<path opacity="0.07" d="M242.523 524.838H252.59V528.565H242.523V524.838Z" fill="white"/>
<path opacity="0.06" d="M270.737 531.67H280.805V535.397H270.737V531.67Z" fill="white"/>
<path opacity="0.44" d="M256.692 531.67H266.76V535.397H256.692V531.67Z" fill="white"/>
<path opacity="0.24" d="M242.523 531.67H252.59V535.397H242.523V531.67Z" fill="white"/>
<path opacity="0.55" d="M270.737 538.502H280.805V542.229H270.737V538.502Z" fill="white"/>
<path opacity="0.02" d="M256.692 538.502H266.76V542.229H256.692V538.502Z" fill="white"/>
<path opacity="0.14" d="M242.523 538.502H252.59V542.229H242.523V538.502Z" fill="white"/>
<path opacity="0.43" d="M270.737 545.459H280.805V549.185H270.737V545.459Z" fill="white"/>
<path opacity="0.41" d="M256.692 545.459H266.76V549.185H256.692V545.459Z" fill="white"/>
<path opacity="0.46" d="M242.523 545.459H252.59V549.185H242.523V545.459Z" fill="white"/>
<path opacity="0.45" d="M270.737 552.291H280.805V556.018H270.737V552.291Z" fill="white"/>
<path opacity="0.33" d="M256.692 552.291H266.76V556.018H256.692V552.291Z" fill="white"/>
<path opacity="0.05" d="M242.523 552.291H252.59V556.018H242.523V552.291Z" fill="white"/>
<path d="M506.89 469.807H541.692V577.011H506.89V469.807Z" fill="#333333"/>
<path d="M467.241 469.807H506.766V577.011H467.241V469.807Z" fill="#4D4D4D"/>
<path d="M506.89 478.876H541.692V480.739H506.89V478.876Z" fill="#4D4D4D"/>
<path d="M467.241 478.876H506.766V480.739H467.241V478.876Z" fill="#333333"/>
<path opacity="0.47" d="M535.104 482.851H538.833V486.577H535.104V482.851Z" fill="white"/>
<path opacity="0.26" d="M530.008 482.851H533.737V486.577H530.008V482.851Z" fill="white"/>
<path opacity="0.32" d="M524.912 482.851H528.641V486.577H524.912V482.851Z" fill="white"/>
<path opacity="0.25" d="M519.816 482.851H523.545V486.577H519.816V482.851Z" fill="white"/>
<path opacity="0.12" d="M509.625 482.851H513.353V486.577H509.625V482.851Z" fill="white"/>
<path opacity="0.32" d="M535.104 487.944H538.833V491.671H535.104V487.944Z" fill="white"/>
<path opacity="0.22" d="M524.912 487.944H528.641V491.671H524.912V487.944Z" fill="white"/>
<path opacity="0.47" d="M519.816 487.944H523.545V491.671H519.816V487.944Z" fill="white"/>
<path opacity="0.22" d="M514.72 487.944H518.449V491.671H514.72V487.944Z" fill="white"/>
<path opacity="0.32" d="M509.625 487.944H513.353V491.671H509.625V487.944Z" fill="white"/>
<path opacity="0.37" d="M535.104 493.037H538.833V496.764H535.104V493.037Z" fill="white"/>
<path opacity="0.34" d="M530.008 493.037H533.737V496.764H530.008V493.037Z" fill="white"/>
<path opacity="0.18" d="M524.912 493.037H528.641V496.764H524.912V493.037Z" fill="white"/>
<path opacity="0.28" d="M519.816 493.037H523.545V496.764H519.816V493.037Z" fill="white"/>
<path opacity="0.2" d="M509.625 493.037H513.353V496.764H509.625V493.037Z" fill="white"/>
<path opacity="0.18" d="M535.104 498.13H538.833V501.857H535.104V498.13Z" fill="white"/>
<path opacity="0.33" d="M524.912 498.13H528.641V501.857H524.912V498.13Z" fill="white"/>
<path opacity="0.05" d="M519.816 498.13H523.545V501.857H519.816V498.13Z" fill="white"/>
<path opacity="0.08" d="M514.72 498.13H518.449V501.857H514.72V498.13Z" fill="white"/>
<path opacity="0.08" d="M519.816 503.223H523.545V506.95H519.816V503.223Z" fill="white"/>
<path opacity="0.02" d="M514.72 503.223H518.449V506.95H514.72V503.223Z" fill="white"/>
<path opacity="0.03" d="M535.104 508.316H538.833V512.043H535.104V508.316Z" fill="white"/>
<path opacity="0.46" d="M530.008 508.316H533.737V512.043H530.008V508.316Z" fill="white"/>
<path opacity="0.05" d="M524.912 508.316H528.641V512.043H524.912V508.316Z" fill="white"/>
<path opacity="0.2" d="M519.816 508.316H523.545V512.043H519.816V508.316Z" fill="white"/>
<path opacity="0.23" d="M514.72 508.316H518.449V512.043H514.72V508.316Z" fill="white"/>
<path opacity="0.17" d="M535.104 513.409H538.833V517.136H535.104V513.409Z" fill="white"/>
<path opacity="0.08" d="M530.008 513.409H533.737V517.136H530.008V513.409Z" fill="white"/>
<path opacity="0.14" d="M524.912 513.409H528.641V517.136H524.912V513.409Z" fill="white"/>
<path opacity="0.24" d="M514.72 513.409H518.449V517.136H514.72V513.409Z" fill="white"/>
<path opacity="0.28" d="M535.104 518.502H538.833V522.229H535.104V518.502Z" fill="white"/>
<path opacity="0.3" d="M530.008 518.502H533.737V522.229H530.008V518.502Z" fill="white"/>
<path opacity="0.23" d="M524.912 518.502H528.641V522.229H524.912V518.502Z" fill="white"/>
<path opacity="0.02" d="M519.816 518.502H523.545V522.229H519.816V518.502Z" fill="white"/>
<path opacity="0.04" d="M514.72 518.502H518.449V522.229H514.72V518.502Z" fill="white"/>
<path opacity="0.3" d="M509.625 518.502H513.353V522.229H509.625V518.502Z" fill="white"/>
<path opacity="0.08" d="M530.008 523.471H533.737V527.198H530.008V523.471Z" fill="white"/>
<path opacity="0.4" d="M509.625 523.471H513.353V527.198H509.625V523.471Z" fill="white"/>
<path opacity="0.31" d="M535.104 528.564H538.833V532.291H535.104V528.564Z" fill="white"/>
<path opacity="0.31" d="M530.008 528.564H533.737V532.291H530.008V528.564Z" fill="white"/>
<path opacity="0.12" d="M524.912 528.564H528.641V532.291H524.912V528.564Z" fill="white"/>
<path opacity="0.19" d="M514.72 528.564H518.449V532.291H514.72V528.564Z" fill="white"/>
<path opacity="0.43" d="M509.625 528.564H513.353V532.291H509.625V528.564Z" fill="white"/>
<path opacity="0.12" d="M535.104 533.658H538.833V537.385H535.104V533.658Z" fill="white"/>
<path opacity="0.42" d="M519.816 533.658H523.545V537.385H519.816V533.658Z" fill="white"/>
<path opacity="0.31" d="M509.625 533.658H513.353V537.385H509.625V533.658Z" fill="white"/>
<path opacity="0.23" d="M535.104 538.751H538.833V542.477H535.104V538.751Z" fill="white"/>
<path opacity="0.31" d="M519.816 538.751H523.545V542.477H519.816V538.751Z" fill="white"/>
<path opacity="0.33" d="M509.625 538.751H513.353V542.477H509.625V538.751Z" fill="white"/>
<path opacity="0.49" d="M535.104 543.844H538.833V547.571H535.104V543.844Z" fill="white"/>
<path opacity="0.06" d="M530.008 543.844H533.737V547.571H530.008V543.844Z" fill="white"/>
<path opacity="0.17" d="M519.816 543.844H523.545V547.571H519.816V543.844Z" fill="white"/>
<path opacity="0.01" d="M514.72 543.844H518.449V547.571H514.72V543.844Z" fill="white"/>
<path opacity="0.48" d="M509.625 543.844H513.353V547.571H509.625V543.844Z" fill="white"/>
<path opacity="0.05" d="M535.104 548.937H538.833V552.664H535.104V548.937Z" fill="white"/>
<path opacity="0.23" d="M530.008 548.937H533.737V552.664H530.008V548.937Z" fill="white"/>
<path opacity="0.28" d="M524.912 548.937H528.641V552.664H524.912V548.937Z" fill="white"/>
<path opacity="0.02" d="M519.816 548.937H523.545V552.664H519.816V548.937Z" fill="white"/>
<path opacity="0.17" d="M514.72 548.937H518.449V552.664H514.72V548.937Z" fill="white"/>
<path opacity="0.42" d="M509.625 548.937H513.353V552.664H509.625V548.937Z" fill="white"/>
<path opacity="0.13" d="M535.104 554.03H538.833V557.757H535.104V554.03Z" fill="white"/>
<path opacity="0.11" d="M524.912 554.03H528.641V557.757H524.912V554.03Z" fill="white"/>
<path opacity="0.02" d="M519.816 554.03H523.545V557.757H519.816V554.03Z" fill="white"/>
<path opacity="0.3" d="M509.625 554.03H513.353V557.757H509.625V554.03Z" fill="white"/>
<path opacity="0.08" d="M514.72 482.851H518.449V486.577H514.72V482.851Z" fill="white"/>
<path opacity="0.1" d="M530.008 487.944H533.737V491.671H530.008V487.944Z" fill="white"/>
<path opacity="0.08" d="M514.72 493.037H518.449V496.764H514.72V493.037Z" fill="white"/>
<path opacity="0.1" d="M530.008 498.13H533.737V501.857H530.008V498.13Z" fill="white"/>
<path opacity="0.01" d="M509.625 498.13H513.353V501.857H509.625V498.13Z" fill="white"/>
<path opacity="0.17" d="M535.104 503.223H538.833V506.95H535.104V503.223Z" fill="white"/>
<path opacity="0.01" d="M530.008 503.223H533.737V506.95H530.008V503.223Z" fill="white"/>
<path opacity="0.15" d="M524.912 503.223H528.641V506.95H524.912V503.223Z" fill="white"/>
<path opacity="0.12" d="M509.625 503.223H513.353V506.95H509.625V503.223Z" fill="white"/>
<path opacity="0.13" d="M519.816 513.409H523.545V517.136H519.816V513.409Z" fill="white"/>
<path opacity="0.07" d="M509.625 513.409H513.353V517.136H509.625V513.409Z" fill="white"/>
<path opacity="0.13" d="M535.104 523.471H538.833V527.198H535.104V523.471Z" fill="white"/>
<path opacity="0.02" d="M524.912 523.471H528.641V527.198H524.912V523.471Z" fill="white"/>
<path opacity="0.02" d="M519.816 523.471H523.545V527.198H519.816V523.471Z" fill="white"/>
<path opacity="0.14" d="M514.72 523.471H518.449V527.198H514.72V523.471Z" fill="white"/>
<path opacity="0.09" d="M524.912 533.658H528.641V537.385H524.912V533.658Z" fill="white"/>
<path opacity="0.02" d="M514.72 533.658H518.449V537.385H514.72V533.658Z" fill="white"/>
<path opacity="0.19" d="M524.912 538.751H528.641V542.477H524.912V538.751Z" fill="white"/>
<path opacity="0.06" d="M514.72 538.751H518.449V542.477H514.72V538.751Z" fill="white"/>
<path opacity="0.16" d="M524.912 543.844H528.641V547.571H524.912V543.844Z" fill="white"/>
<path opacity="0.19" d="M530.008 554.03H533.737V557.757H530.008V554.03Z" fill="white"/>
<path opacity="0.04" d="M514.72 554.03H518.449V557.757H514.72V554.03Z" fill="white"/>
<g opacity="0.7">
<path opacity="0.7" d="M499.308 480.739H503.161V572.291H499.308V480.739Z" fill="#E6E6E6"/>
<path opacity="0.7" d="M492.721 480.739H496.574V572.291H492.721V480.739Z" fill="#E6E6E6"/>
<path opacity="0.7" d="M486.009 480.739H489.862V572.291H486.009V480.739Z" fill="#E6E6E6"/>
<path opacity="0.7" d="M479.298 480.739H483.151V572.291H479.298V480.739Z" fill="#E6E6E6"/>
<path opacity="0.7" d="M472.586 480.739H476.439V572.291H472.586V480.739Z" fill="#E6E6E6"/>
</g>
<path d="M584.448 417.261L592.154 396.889L571.522 417.261H584.448Z" fill="#4D4D4D"/>
<path d="M602.47 417.261L592.154 396.889L584.448 417.261H602.47Z" fill="#333333"/>
<path d="M584.448 417.261H602.47V439H584.448V417.261Z" fill="#333333"/>
<path d="M571.522 417.261H584.448V439H571.522V417.261Z" fill="#4D4D4D"/>
<path d="M566.177 515.024H620.741V577.508H566.177V515.024Z" fill="#333333"/>
<path d="M573.635 470.304H613.159V515.024H573.635V470.304Z" fill="#333333"/>
<path d="M579.352 425.584H607.442V470.304H579.352V425.584Z" fill="#333333"/>
<path d="M560.087 425.584H579.476V470.304H560.087V425.584Z" fill="#4D4D4D"/>
<path d="M532.619 515.024H566.177V577.508H532.619V515.024Z" fill="#4D4D4D"/>
<path d="M548.155 470.304H573.635V515.024H548.155V470.304Z" fill="#4D4D4D"/>
<path opacity="0.53" d="M566.799 428.814H572.64V434.652H566.799V428.814Z" fill="white"/>
<path opacity="0.34" d="M566.799 436.143H572.64V441.981H566.799V436.143Z" fill="white"/>
<path opacity="0.9" d="M566.799 443.348H572.64V449.186H566.799V443.348Z" fill="white"/>
<path opacity="0.14" d="M566.799 450.553H572.64V456.391H566.799V450.553Z" fill="white"/>
<path d="M566.799 457.882H572.64V463.72H566.799V457.882Z" fill="white"/>
<path opacity="0.29" d="M562.448 474.155H568.29V479.993H562.448V474.155Z" fill="white"/>
<path opacity="0.81" d="M553.499 474.155H559.341V479.993H553.499V474.155Z" fill="white"/>
<path opacity="0.18" d="M562.448 481.484H568.29V487.323H562.448V481.484Z" fill="white"/>
<path opacity="0.41" d="M553.499 481.484H559.341V487.323H553.499V481.484Z" fill="white"/>
<path opacity="0.03" d="M553.499 488.938H559.341V494.776H553.499V488.938Z" fill="white"/>
<path opacity="0.85" d="M562.448 496.391H568.29V502.229H562.448V496.391Z" fill="white"/>
<path opacity="0.06" d="M553.499 496.391H559.341V502.229H553.499V496.391Z" fill="white"/>
<path opacity="0.94" d="M562.448 503.72H568.29V509.558H562.448V503.72Z" fill="white"/>
<path opacity="0.25" d="M553.499 503.72H559.341V509.558H553.499V503.72Z" fill="white"/>
<path opacity="0.6" d="M554.245 518.875H560.087V524.713H554.245V518.875Z" fill="white"/>
<path opacity="0.83" d="M546.415 518.875H552.256V524.713H546.415V518.875Z" fill="white"/>
<path opacity="0.74" d="M538.585 518.875H544.426V524.713H538.585V518.875Z" fill="white"/>
<path opacity="0.35" d="M546.415 525.956H552.256V531.794H546.415V525.956Z" fill="white"/>
<path opacity="0.54" d="M538.585 525.956H544.426V531.794H538.585V525.956Z" fill="white"/>
<path opacity="0.2" d="M554.245 533.036H560.087V538.875H554.245V533.036Z" fill="white"/>
<path opacity="0.04" d="M546.415 533.036H552.256V538.875H546.415V533.036Z" fill="white"/>
<path opacity="0.86" d="M538.585 533.036H544.426V538.875H538.585V533.036Z" fill="white"/>
<path opacity="0.06" d="M554.245 540.117H560.087V545.956H554.245V540.117Z" fill="white"/>
<path opacity="0.01" d="M546.415 540.117H552.256V545.956H546.415V540.117Z" fill="white"/>
<path opacity="0.39" d="M538.585 540.117H544.426V545.956H538.585V540.117Z" fill="white"/>
<path opacity="0.1" d="M554.245 547.322H560.087V553.16H554.245V547.322Z" fill="white"/>
<path d="M546.415 547.322H552.256V553.16H546.415V547.322Z" fill="white"/>
<path opacity="0.62" d="M538.585 547.322H544.426V553.16H538.585V547.322Z" fill="white"/>
<path opacity="0.48" d="M554.245 554.651H560.087V560.49H554.245V554.651Z" fill="white"/>
<path opacity="0.27" d="M546.415 554.651H552.256V560.49H546.415V554.651Z" fill="white"/>
<path opacity="0.42" d="M538.585 554.651H544.426V560.49H538.585V554.651Z" fill="white"/>
<path opacity="0.27" d="M609.058 518.875H614.899V524.713H609.058V518.875Z" fill="white"/>
<path opacity="0.11" d="M602.47 474.155H608.312V479.993H602.47V474.155Z" fill="white"/>
<path opacity="0.41" d="M597.871 428.814H603.713V434.652H597.871V428.814Z" fill="white"/>
<path opacity="0.38" d="M590.538 428.814H596.38V434.652H590.538V428.814Z" fill="white"/>
<path opacity="0.02" d="M583.081 428.814H588.922V434.652H583.081V428.814Z" fill="white"/>
<path opacity="0.46" d="M597.871 436.143H603.713V441.981H597.871V436.143Z" fill="white"/>
<path opacity="0.31" d="M590.538 436.143H596.38V441.981H590.538V436.143Z" fill="white"/>
<path opacity="0.61" d="M583.081 436.143H588.922V441.981H583.081V436.143Z" fill="white"/>
<path opacity="0.03" d="M597.871 443.348H603.713V449.186H597.871V443.348Z" fill="white"/>
<path opacity="0.03" d="M590.538 443.348H596.38V449.186H590.538V443.348Z" fill="white"/>
<path opacity="0.46" d="M583.081 443.348H588.922V449.186H583.081V443.348Z" fill="white"/>
<path opacity="0.32" d="M597.871 450.553H603.713V456.391H597.871V450.553Z" fill="white"/>
<path opacity="0.14" d="M590.538 450.553H596.38V456.391H590.538V450.553Z" fill="white"/>
<path opacity="0.3" d="M583.081 450.553H588.922V456.391H583.081V450.553Z" fill="white"/>
<path opacity="0.04" d="M597.871 457.882H603.713V463.72H597.871V457.882Z" fill="white"/>
<path opacity="0.64" d="M590.538 457.882H596.38V463.72H590.538V457.882Z" fill="white"/>
<path opacity="0.05" d="M583.081 457.882H588.922V463.72H583.081V457.882Z" fill="white"/>
<path opacity="0.15" d="M595.013 474.155H600.854V479.993H595.013V474.155Z" fill="white"/>
<path opacity="0.15" d="M587.555 474.155H593.397V479.993H587.555V474.155Z" fill="white"/>
<path opacity="0.52" d="M580.222 474.155H586.064V479.993H580.222V474.155Z" fill="white"/>
<path opacity="0.58" d="M602.47 481.484H608.312V487.323H602.47V481.484Z" fill="white"/>
<path opacity="0.62" d="M595.013 481.484H600.854V487.323H595.013V481.484Z" fill="white"/>
<path opacity="0.04" d="M587.555 481.484H593.397V487.323H587.555V481.484Z" fill="white"/>
<path opacity="0.06" d="M580.222 481.484H586.064V487.323H580.222V481.484Z" fill="white"/>
<path opacity="0.3" d="M602.47 488.938H608.312V494.776H602.47V488.938Z" fill="white"/>
<path opacity="0.01" d="M595.013 488.938H600.854V494.776H595.013V488.938Z" fill="white"/>
<path opacity="0.37" d="M587.555 488.938H593.397V494.776H587.555V488.938Z" fill="white"/>
<path opacity="0.62" d="M580.222 488.938H586.064V494.776H580.222V488.938Z" fill="white"/>
<path opacity="0.54" d="M602.47 496.391H608.312V502.229H602.47V496.391Z" fill="white"/>
<path opacity="0.21" d="M595.013 496.391H600.854V502.229H595.013V496.391Z" fill="white"/>
<path opacity="0.41" d="M587.555 496.391H593.397V502.229H587.555V496.391Z" fill="white"/>
<path opacity="0.1" d="M580.222 496.391H586.064V502.229H580.222V496.391Z" fill="white"/>
<path opacity="0.17" d="M602.47 503.72H608.312V509.558H602.47V503.72Z" fill="white"/>
<path opacity="0.17" d="M595.013 503.72H600.854V509.558H595.013V503.72Z" fill="white"/>
<path opacity="0.13" d="M587.555 503.72H593.397V509.558H587.555V503.72Z" fill="white"/>
<path opacity="0.5" d="M580.222 503.72H586.064V509.558H580.222V503.72Z" fill="white"/>
<path opacity="0.06" d="M601.6 518.875H607.442V524.713H601.6V518.875Z" fill="white"/>
<path opacity="0.27" d="M594.267 518.875H600.109V524.713H594.267V518.875Z" fill="white"/>
<path opacity="0.51" d="M586.809 518.875H592.651V524.713H586.809V518.875Z" fill="white"/>
<path opacity="0.42" d="M579.352 518.875H585.194V524.713H579.352V518.875Z" fill="white"/>
<path opacity="0.64" d="M572.019 518.875H577.861V524.713H572.019V518.875Z" fill="white"/>
<path opacity="0.29" d="M609.058 525.956H614.899V531.794H609.058V525.956Z" fill="white"/>
<path opacity="0.6" d="M601.6 525.956H607.442V531.794H601.6V525.956Z" fill="white"/>
<path opacity="0.2" d="M594.267 525.956H600.109V531.794H594.267V525.956Z" fill="white"/>
<path opacity="0.24" d="M586.809 525.956H592.651V531.794H586.809V525.956Z" fill="white"/>
<path opacity="0.62" d="M579.352 525.956H585.194V531.794H579.352V525.956Z" fill="white"/>
<path opacity="0.62" d="M572.019 525.956H577.861V531.794H572.019V525.956Z" fill="white"/>
<path opacity="0.25" d="M609.058 533.036H614.899V538.875H609.058V533.036Z" fill="white"/>
<path opacity="0.36" d="M601.6 533.036H607.442V538.875H601.6V533.036Z" fill="white"/>
<path opacity="0.16" d="M594.267 533.036H600.109V538.875H594.267V533.036Z" fill="white"/>
<path opacity="0.1" d="M586.809 533.036H592.651V538.875H586.809V533.036Z" fill="white"/>
<path opacity="0.04" d="M579.352 533.036H585.194V538.875H579.352V533.036Z" fill="white"/>
<path opacity="0.44" d="M572.019 533.036H577.861V538.875H572.019V533.036Z" fill="white"/>
<path opacity="0.68" d="M609.058 540.117H614.899V545.956H609.058V540.117Z" fill="white"/>
<path opacity="0.01" d="M601.6 540.117H607.442V545.956H601.6V540.117Z" fill="white"/>
<path opacity="0.29" d="M594.267 540.117H600.109V545.956H594.267V540.117Z" fill="white"/>
<path opacity="0.66" d="M586.809 540.117H592.651V545.956H586.809V540.117Z" fill="white"/>
<path opacity="0.12" d="M579.352 540.117H585.194V545.956H579.352V540.117Z" fill="white"/>
<path opacity="0.34" d="M572.019 540.117H577.861V545.956H572.019V540.117Z" fill="white"/>
<path opacity="0.36" d="M609.058 547.322H614.899V553.16H609.058V547.322Z" fill="white"/>
<path opacity="0.5" d="M601.6 547.322H607.442V553.16H601.6V547.322Z" fill="white"/>
<path opacity="0.07" d="M594.267 547.322H600.109V553.16H594.267V547.322Z" fill="white"/>
<path opacity="0.64" d="M586.809 547.322H592.651V553.16H586.809V547.322Z" fill="white"/>
<path opacity="0.4" d="M579.352 547.322H585.194V553.16H579.352V547.322Z" fill="white"/>
<path opacity="0.27" d="M572.019 547.322H577.861V553.16H572.019V547.322Z" fill="white"/>
<path opacity="0.09" d="M609.058 554.651H614.899V560.49H609.058V554.651Z" fill="white"/>
<path opacity="0.47" d="M601.6 554.651H607.442V560.49H601.6V554.651Z" fill="white"/>
<path opacity="0.57" d="M594.267 554.651H600.109V560.49H594.267V554.651Z" fill="white"/>
<path opacity="0.12" d="M586.809 554.651H592.651V560.49H586.809V554.651Z" fill="white"/>
<path opacity="0.23" d="M579.352 554.651H585.194V560.49H579.352V554.651Z" fill="white"/>
<path opacity="0.36" d="M572.019 554.651H577.861V560.49H572.019V554.651Z" fill="white"/>
<path d="M447.355 572.291H524.664L447.355 504.962V572.291Z" fill="#333333"/>
<path d="M613.159 573.657H720.298L613.159 480.49V573.657Z" fill="#333333"/>
<path d="M455.931 556.887H478.552V563.844H455.931V556.887Z" fill="#4D4D4D"/>
<path d="M458.541 558.999H476.066L469.976 548.813H464.631L458.541 558.999Z" fill="#4D4D4D"/>
<path d="M552.629 566.701C552.629 571.545 556.482 575.52 561.205 575.52C565.929 575.52 569.782 571.545 569.782 566.701C569.782 561.856 565.929 557.881 561.205 557.881C556.482 557.757 552.629 561.732 552.629 566.701Z" fill="#333333"/>
<path d="M321.821 562.85C321.821 566.08 324.431 568.813 327.538 568.813C330.645 568.813 333.255 566.204 333.255 562.85C333.255 559.62 330.645 556.887 327.538 556.887C324.431 556.887 321.821 559.62 321.821 562.85Z" fill="#333333"/>
<path d="M522.054 563.222C522.054 566.576 524.664 569.309 528.02 569.309C531.251 569.309 533.986 566.576 533.986 563.222C533.986 559.868 531.376 557.135 528.02 557.135C524.664 557.135 522.054 559.868 522.054 563.222Z" fill="#333333"/>
</g>
</g>
<defs>
<clipPath id="clip0">
<rect width="811" height="559" transform="matrix(-1 0 0 1 811.776 -0.000976562)" fill="white"/>
</clipPath>
</defs>
</svg>
